{"accessors" : [{"bufferView" : 0, "byteOffset" : 0, "componentType" : 5123, "count" : 31416, "type" : "SCALAR", "max" : [5237], "min" : [0]}, {"bufferView" : 1, "byteOffset" : 0, "componentType" : 5126, "count" : 5238, "type" : "VEC3", "max" : [3.359546661376953, 4.885075569152832, 1.6735471487045288], "min" : [-0.8767685890197754, -1.047858715057373, -1.6735471487045288], "name" : "POSITION"}, {"bufferView" : 1, "byteOffset" : 12, "componentType" : 5126, "count" : 5238, "type" : "VEC3", "max" : [0.9999902248382568, 1.0000027418136597, 0.9998887777328491], "min" : [-1.0000044107437134, -1.0000038146972656, -0.9998887777328491], "name" : "NORMAL"}, {"bufferView" : 1, "byteOffset" : 24, "componentType" : 5126, "count" : 5238, "type" : "VEC2", "max" : [0.797698974609375, 1.769174575805664], "min" : [0.37400001287460327, 1.0275006294250488], "name" : "TEXCOORD_0"}], "asset" : {"generator" : "Aspose.3D 24.4.1", "version" : "2.0"}, "buffers" : [{"uri" : "buffer.bin", "byteLength" : 230456}], "bufferViews" : [{"buffer" : 0, "byteOffset" : 0, "byteLength" : 62832, "target" : 34963}, {"buffer" : 0, "byteOffset" : 62836, "byteLength" : 167616, "byteStride" : 32, "target" : 34962}], "meshes" : [{"primitives" : [{"attributes" : {"POSITION" : 1, "NORMAL" : 2, "TEXCOORD_0" : 3}, "indices" : 0, "mode" : 4}]}], "nodes" : [{"mesh" : 0, "name" : ""}], "scene" : 0, "scenes" : [{"nodes" : [0]}]}